<?xml version="1.0" encoding="UTF-8"?>
<!DOCTYPE svg PUBLIC "-//W3C//DTD SVG 1.1//EN" "http://www.w3.org/Graphics/SVG/1.1/DTD/svg11.dtd">
<svg xmlns="http://www.w3.org/2000/svg" version="1.1" width="65px" height="65px" style="shape-rendering:geometricPrecision; text-rendering:geometricPrecision; image-rendering:optimizeQuality; fill-rule:evenodd; clip-rule:evenodd" xmlns:xlink="http://www.w3.org/1999/xlink">
<g><path style="opacity:0.887" fill="#e3e3e5" d="M 36.5,18.5 C 35.5,18.5 34.5,18.5 33.5,18.5C 33.6641,15.8127 33.4974,13.146 33,10.5C 32.2681,8.0768 30.7681,6.91014 28.5,7C 30.2902,10.5828 30.9569,14.4161 30.5,18.5C 30.5,20.1667 30.5,21.8333 30.5,23.5C 29.5,23.5 28.5,23.5 27.5,23.5C 27.5,21.8333 27.5,20.1667 27.5,18.5C 28.264,13.8595 27.0974,9.85951 24,6.5C 20.7838,9.77425 19.6171,13.7742 20.5,18.5C 19.5,18.5 18.5,18.5 17.5,18.5C 17.335,15.1501 17.5017,11.8168 18,8.5C 19.3385,7.77642 19.5051,7.10975 18.5,6.5C 17.1861,7.31277 16.0195,8.31277 15,9.5C 14.502,12.4816 14.3354,15.4816 14.5,18.5C 13.5233,21.2869 13.19,24.2869 13.5,27.5C 12.8333,27.5 12.1667,27.5 11.5,27.5C 11.5,24.5 11.5,21.5 11.5,18.5C 10.8955,13.8057 11.7289,9.4724 14,5.5C 17.0976,3.95272 20.4309,3.28605 24,3.5C 34.0112,3.35906 38.1778,8.35906 36.5,18.5 Z M 17.5,18.5 C 16.5,18.5 15.5,18.5 14.5,18.5C 14.3354,15.4816 14.502,12.4816 15,9.5C 16.0195,8.31277 17.1861,7.31277 18.5,6.5C 19.5051,7.10975 19.3385,7.77642 18,8.5C 17.5017,11.8168 17.335,15.1501 17.5,18.5 Z M 27.5,18.5 C 25.1667,18.5 22.8333,18.5 20.5,18.5C 19.6171,13.7742 20.7838,9.77425 24,6.5C 27.0974,9.85951 28.264,13.8595 27.5,18.5 Z M 33.5,18.5 C 32.5,18.5 31.5,18.5 30.5,18.5C 30.9569,14.4161 30.2902,10.5828 28.5,7C 30.7681,6.91014 32.2681,8.0768 33,10.5C 33.4974,13.146 33.6641,15.8127 33.5,18.5 Z"/></g>
<g><path style="opacity:0.984" fill="#eb443f" d="M 11.5,18.5 C 11.5,21.5 11.5,24.5 11.5,27.5C 9.72702,30.4882 9.06035,33.8215 9.5,37.5C 11.5,37.5 13.5,37.5 15.5,37.5C 15.6646,34.4816 15.498,31.4816 15,28.5C 14.6174,27.944 14.1174,27.6107 13.5,27.5C 13.19,24.2869 13.5233,21.2869 14.5,18.5C 15.5,18.5 16.5,18.5 17.5,18.5C 18.5,18.5 19.5,18.5 20.5,18.5C 22.8333,18.5 25.1667,18.5 27.5,18.5C 27.5,20.1667 27.5,21.8333 27.5,23.5C 28.5,23.5 29.5,23.5 30.5,23.5C 30.5,21.8333 30.5,20.1667 30.5,18.5C 31.5,18.5 32.5,18.5 33.5,18.5C 34.5,18.5 35.5,18.5 36.5,18.5C 35.559,23.0704 35.2256,27.737 35.5,32.5C 38.1667,32.5 40.8333,32.5 43.5,32.5C 38.6946,33.4872 33.6946,33.8205 28.5,33.5C 28.0718,42.1622 27.7384,50.8288 27.5,59.5C 19.1667,59.5 10.8333,59.5 2.5,59.5C 2.53975,45.7864 3.20642,32.1198 4.5,18.5C 6.83333,18.5 9.16667,18.5 11.5,18.5 Z"/></g>
<g><path style="opacity:0.922" fill="#c8302d" d="M 36.5,18.5 C 38.8333,18.5 41.1667,18.5 43.5,18.5C 43.6686,23.1811 44.0019,27.8478 44.5,32.5C 44.1667,32.5 43.8333,32.5 43.5,32.5C 40.8333,32.5 38.1667,32.5 35.5,32.5C 35.2256,27.737 35.559,23.0704 36.5,18.5 Z"/></g>
<g><path style="opacity:1" fill="#f6aa30" d="M 11.5,27.5 C 12.1667,27.5 12.8333,27.5 13.5,27.5C 14.1174,27.6107 14.6174,27.944 15,28.5C 15.498,31.4816 15.6646,34.4816 15.5,37.5C 13.5,37.5 11.5,37.5 9.5,37.5C 9.06035,33.8215 9.72702,30.4882 11.5,27.5 Z"/></g>
<g><path style="opacity:0.987" fill="#f3ad31" d="M 43.5,32.5 C 43.8333,32.5 44.1667,32.5 44.5,32.5C 49.544,32.1725 54.544,32.5059 59.5,33.5C 60.923,42.0874 61.5897,50.754 61.5,59.5C 50.1667,59.5 38.8333,59.5 27.5,59.5C 27.7384,50.8288 28.0718,42.1622 28.5,33.5C 33.6946,33.8205 38.6946,33.4872 43.5,32.5 Z"/></g>
<g><path style="opacity:1" fill="#ede2cd" d="M 33.5,38.5 C 34.5,38.5 35.5,38.5 36.5,38.5C 36.3347,42.1817 36.5014,45.8484 37,49.5C 39.5918,50.9817 41.9251,50.6483 44,48.5C 45.33,35.1666 45.9967,35.1666 46,48.5C 43.3689,52.6285 39.8689,53.4619 35.5,51C 33.6876,47.078 33.021,42.9113 33.5,38.5 Z"/></g>
</svg>
