<?xml version="1.0" encoding="utf-8"?>
<!-- Generator: Adobe Illustrator 24.1.1, SVG Export Plug-In . SVG Version: 6.00 Build 0)  -->
<svg version="1.1" id="Layer_1" xmlns="http://www.w3.org/2000/svg" xmlns:xlink="http://www.w3.org/1999/xlink" x="0px" y="0px"
	 viewBox="0 0 512 512" style="enable-background:new 0 0 512 512;" xml:space="preserve">
<style type="text/css">
	.st0{fill:#333333;}
</style>
<g id="XMLID_2_">
	<path id="XMLID_6_" class="st0" d="M365,296.1l79.2-77.4l-110-15.8l-20.5-2.8l-9.3-18.6l-48.5-98.8V379l18.6,9.3l97.9,52.2
		l-18.6-109l-3.7-20.5L365,296.1z M503.9,215.9L392,325l26.1,153.8c0.9,6.5,0,12.1-1.9,15.8c-1.9,3.7-5.6,5.6-10.3,5.6
		c-3.7,0-7.5-0.9-12.1-3.7l-137.9-72.7L118,496.5c-4.7,2.8-8.4,3.7-12.1,3.7c-4.7,0-8.4-1.9-10.3-5.6c-1.9-3.7-2.8-9.3-1.9-15.8
		L119.9,325L8,215.9c-6.5-6.5-9.3-13-7.5-18.6S8,188,17.3,187l154.7-22.4l69-139.8c3.7-8.4,9.3-13,14.9-13c5.6,0,11.2,4.7,14.9,13
		l69,139.8L494.6,187c9.3,1.9,14.9,4.7,16.8,10.3C513.2,202.9,511.3,209.4,503.9,215.9z"/>
</g>
</svg>
